<svg width="26" height="31" fill="none" xmlns="http://www.w3.org/2000/svg"><path d="M5.538 0c-1.063 0-1.063 1.583 0 1.583h6.643v1.604C5.38 3.62 0 9.414 0 16.485c0 4.01 1.743 7.63 4.496 10.069.479.422.542 1.171.107 1.636L3.072 29.74c-.744.686.361 1.752 1.031 1.003l1.998-2.037c.351-.338.872-.422 1.308-.211a12.702 12.702 0 0011.065.063 1.14 1.14 0 011.297.211l1.934 1.974c.68.633 1.659-.317 1.042-1.003l-1.445-1.477c-.447-.454-.383-1.203.106-1.636a13.462 13.462 0 003.403-4.583A13.376 13.376 0 0026 16.475c0-7.071-5.41-12.876-12.224-13.288V1.583h6.643c1.063 0 1.063-1.583 0-1.583H5.538zM1.435 16.475c0-6.533 5.177-11.82 11.565-11.82 6.378 0 11.554 5.287 11.554 11.82 0 6.543-5.176 11.841-11.554 11.841S1.435 23.018 1.435 16.475zM12.192 8.38c0-1.098 1.658-1.098 1.658 0v8.633c0 .224-.09.439-.249.597a.853.853 0 01-.601.247.811.811 0 01-.568-.23.8.8 0 01-.24-.561V8.38zm-4.975 2.617c.308 0 .602-.12.82-.337a1.146 1.146 0 000-1.627 1.163 1.163 0 00-.82-.336c-.286.027-.553.16-.746.371a1.146 1.146 0 000 1.547c.193.212.46.344.746.372v.01zm11.555 0c.307 0 .602-.12.82-.337a1.146 1.146 0 000-1.627 1.163 1.163 0 00-.82-.336c-.287.027-.553.16-.747.371a1.145 1.145 0 000 1.547c.194.212.46.344.747.372v.01zM8.376 23.588c0 1.53-2.317 1.53-2.317 0s2.317-1.53 2.317 0zM13 27.028a1.169 1.169 0 00.89-.293 1.153 1.153 0 00.38-.851 1.145 1.145 0 00-.38-.852 1.162 1.162 0 00-1.637.078 1.146 1.146 0 000 1.547c.194.212.46.344.747.372zM4.91 16.645a1.143 1.143 0 01-.295.883 1.158 1.158 0 01-.857.377 1.166 1.166 0 01-.858-.377 1.148 1.148 0 01-.296-.883c.028-.285.161-.55.374-.742a1.163 1.163 0 011.559 0c.213.193.346.457.374.742zm17.327 1.15a1.165 1.165 0 001.17-.68 1.144 1.144 0 00-.694-1.557 1.166 1.166 0 00-1.223.318 1.146 1.146 0 000 1.547c.194.212.46.345.747.372zm-2.307 5.805c0 1.52-2.317 1.52-2.317-.01 0-1.531 2.317-1.531 2.317 0v.01z" fill="#fff"/></svg>